<?xml version="1.0" standalone="no"?>
<!DOCTYPE svg PUBLIC "-//W3C//DTD SVG 20010904//EN"
 "http://www.w3.org/TR/2001/REC-SVG-20010904/DTD/svg10.dtd">
<svg version="1.0" xmlns="http://www.w3.org/2000/svg"
 width="586.000000pt" height="586.000000pt" viewBox="0 0 586.000000 586.000000"
 preserveAspectRatio="xMidYMid meet">
<metadata>
Created by potrace 1.14, written by Peter Selinger 2001-2017
</metadata>
<g transform="translate(0.000000,586.000000) scale(0.100000,-0.100000)"
fill="#000000" stroke="none">
<path d="M4335 5741 c-83 -49 -109 -80 -100 -118 3 -13 52 -103 108 -200 57
-98 148 -256 203 -351 54 -95 107 -186 116 -202 73 -126 213 -367 303 -523 59
-104 118 -195 131 -203 29 -20 48 -14 152 44 117 67 120 85 35 232 -31 52 -63
109 -73 125 -9 17 -60 104 -112 195 -233 403 -322 558 -346 600 -14 25 -45 79
-70 120 -25 41 -58 100 -75 130 -52 93 -109 185 -121 192 -27 18 -75 5 -151
-41z"/>
<path d="M4190 5478 c-50 -116 -73 -163 -126 -249 -69 -115 -80 -131 -191
-269 -212 -267 -518 -543 -918 -830 -369 -264 -725 -485 -1480 -920 -293 -169
-658 -383 -672 -394 -6 -5 132 -236 141 -236 6 0 60 27 120 60 61 33 111 60
112 60 1 0 0 -9 -3 -19 -9 -35 16 -152 45 -214 74 -156 242 -252 415 -240 70
5 121 22 204 69 l63 35 0 99 c0 55 -3 100 -7 100 -4 0 -51 -25 -104 -55 -107
-61 -166 -77 -234 -64 -80 15 -142 63 -181 139 -27 53 -25 153 5 209 40 76 21
64 571 381 184 106 349 201 365 211 238 142 922 479 972 479 34 0 107 -45 136
-83 56 -74 68 -167 33 -252 -11 -27 -16 -70 -16 -151 0 -63 3 -114 7 -114 16
0 82 53 110 88 83 103 115 235 89 362 -18 85 -42 132 -100 197 -38 42 -43 52
-28 56 9 3 76 26 147 52 232 83 424 135 633 171 182 32 452 43 597 25 53 -7
99 -11 101 -8 4 4 -34 74 -158 287 -30 52 -66 115 -80 140 -14 25 -58 101 -98
170 -160 273 -274 472 -352 612 -46 81 -86 147 -89 148 -4 0 -17 -24 -29 -52z"/>
<path d="M3355 3386 c-11 -7 -110 -65 -220 -128 -110 -63 -308 -177 -440 -253
-132 -76 -283 -163 -335 -193 -52 -30 -166 -95 -253 -145 l-157 -90 0 -874 0
-873 23 0 c12 0 41 -11 64 -24 l43 -25 17 23 c38 47 178 196 185 196 5 0 8 -4
8 -9 0 -5 22 -55 49 -112 27 -57 69 -147 93 -199 24 -52 61 -131 82 -176 l38
-81 74 1 74 1 28 80 c16 44 71 198 123 343 l94 263 161 -168 161 -167 28 22
c15 12 45 25 66 28 l39 7 -4 1231 c-3 677 -5 1255 -5 1284 -1 55 -5 60 -36 38z
m-190 -1202 l0 -1006 -59 64 c-32 34 -113 123 -179 196 -78 85 -123 128 -128
120 -3 -7 -51 -156 -105 -330 -85 -274 -114 -353 -114 -308 0 6 -34 81 -76
168 -42 86 -94 195 -117 242 -22 47 -41 86 -43 88 -1 2 -45 -41 -98 -95 l-96
-98 0 695 0 696 53 31 c28 17 147 85 262 151 116 66 316 181 445 256 129 74
240 135 245 136 7 0 10 -342 10 -1006z"/>
<path d="M602 2814 c-71 -41 -93 -74 -80 -119 16 -57 172 -309 201 -325 26
-14 31 -13 94 20 37 19 76 43 85 52 29 29 22 75 -26 157 -24 42 -56 96 -70
121 -15 25 -34 59 -43 77 -16 31 -50 53 -81 53 -9 -1 -45 -17 -80 -36z"/>
<path d="M1892 792 c-33 -10 -90 -59 -108 -94 -40 -77 -10 -188 63 -238 52
-36 154 -36 206 0 72 49 103 162 64 236 -42 80 -137 121 -225 96z"/>
<path d="M3320 785 c-77 -35 -114 -99 -108 -187 5 -66 38 -117 98 -150 55 -30
148 -21 197 18 134 108 70 320 -100 331 -33 2 -65 -3 -87 -12z"/>
<path d="M2555 381 c-48 -22 -69 -44 -90 -94 -20 -48 -19 -103 4 -153 50 -110
200 -138 295 -55 31 27 56 88 56 136 0 138 -138 224 -265 166z"/>
</g>
</svg>
